<?xml version="1.0" encoding="utf-8"?>
<!-- Generator: Adobe Illustrator 15.0.0, SVG Export Plug-In . SVG Version: 6.00 Build 0)  -->
<!DOCTYPE svg PUBLIC "-//W3C//DTD SVG 1.1//EN" "http://www.w3.org/Graphics/SVG/1.1/DTD/svg11.dtd">
<svg version="1.1" id="Layer_1" xmlns="http://www.w3.org/2000/svg" xmlns:xlink="http://www.w3.org/1999/xlink" x="0px" y="0px"
	 width="340.159px" height="127.276px" viewBox="0 0 340.159 127.276" enable-background="new 0 0 340.159 127.276"
	 xml:space="preserve">
<g>
	<g>
		<rect y="119.553" fill="#FFFFFF" width="340.159" height="7.723"/>
		<rect fill="#FFFFFF" width="340.159" height="7.724"/>
	</g>
	<g>
		<g>
			<path fill="#FFFFFF" d="M1.662,25.081h9.395c6.977,0,9.965,4.176,9.965,8.256c0,3.369-1.564,5.553-4.936,6.928v0.096
				c4.842,0.9,7.783,4.08,7.783,8.445c0,3.986-2.99,8.637-11.104,8.637H1.662V25.081z M6.313,38.936h3.084
				c4.604,0,6.832-1.709,6.832-5.172c0-2.42-1.375-4.508-5.646-4.508h-4.27V38.936z M6.313,53.266h5.836
				c5.457,0,6.928-2.705,6.928-5.125c0-2.943-2.277-5.029-7.166-5.029H6.313V53.266z"/>
			<path fill="#FFFFFF" d="M44.324,56.208c-1.945,1.281-2.752,1.66-4.082,1.66c-1.85,0-2.846-0.664-3.227-2.182
				c-1.85,1.471-3.795,2.182-5.74,2.182c-3.133,0-5.221-2.467-5.221-5.219c0-4.223,3.844-5.504,7.26-6.738l3.75-1.328v-1.139
				c0-2.658-1.281-3.748-3.844-3.748c-2.326,0-4.697,1.09-6.738,3.51v-4.602c1.66-1.945,3.986-2.895,7.07-2.895
				c4.318,0,7.734,2.182,7.734,7.021v10.961c0,0.807,0.285,1.092,0.807,1.092c0.426,0,1.281-0.426,2.23-1.139V56.208z
				 M37.064,46.909c-3.607,1.232-6.738,2.467-6.738,4.98c0,1.756,1.281,2.99,3.037,2.99c1.328,0,2.563-0.664,3.701-1.756V46.909z"/>
			<path fill="#FFFFFF" d="M53.01,36.135h6.736v3.797H53.01v10.914c0,2.514,1.803,3.227,3.035,3.227c1.52,0,3.086-0.521,4.793-1.566
				v3.939c-1.471,0.807-3.748,1.422-5.123,1.422c-4.604,0-6.928-2.846-6.928-6.689V39.932h-3.703v-0.475l7.926-7.734V36.135z"/>
			<path fill="#FFFFFF" d="M68.006,38.936H68.1c1.613-2.041,3.986-3.227,6.359-3.227c4.176,0,7.26,2.846,7.26,8.684v13.049h-4.223
				V44.25c0-3.133-1.613-5.172-4.176-5.172c-1.852,0-3.322,0.854-5.314,3.084v15.279h-4.225V25.081h4.225V38.936z"/>
			<path fill="#FFFFFF" d="M121.201,41.356c-0.9,2.609-2.846,5.789-5.266,8.494l6.547,7.592h-5.979l-3.701-4.414
				c-4.033,3.654-7.307,4.84-10.25,4.84c-4.412,0-8.16-3.369-8.16-7.686c0-3.893,3.131-6.93,7.639-9.539
				c-1.898-1.992-3.652-4.744-3.652-7.496c0-4.508,3.273-7.449,8.303-7.449c4.555,0,7.781,3.084,7.781,7.021
				c0,3.133-1.756,5.695-5.93,8.637l4.555,5.219c1.328-1.328,2.752-3.605,3.465-5.219H121.201z M104.689,43.727
				c-3.607,2.279-5.646,3.939-5.646,6.455c0.143,1.85,1.898,3.416,3.984,3.416c2.373,0,4.697-1.566,6.928-3.797L104.689,43.727z
				 M105.924,38.223c3.463-2.182,4.223-3.605,4.223-5.266c0-1.898-1.566-3.322-3.701-3.322c-1.994,0-3.512,1.328-3.512,3.084
				C102.934,34.713,104.547,36.895,105.924,38.223z"/>
			<path fill="#FFFFFF" d="M164.672,57.442h-3.986L139.049,32.53v24.912h-4.365V25.081h3.701l21.922,25.053V25.081h4.365V57.442z"/>
			<path fill="#FFFFFF" d="M192.72,46.575c0,6.738-4.697,11.293-11.531,11.293c-6.549,0-11.245-4.744-11.245-11.293
				c0-6.121,4.888-10.865,11.245-10.865C187.878,35.709,192.72,40.264,192.72,46.575z M174.261,46.575
				c0,4.508,2.799,7.498,6.881,7.498c4.459,0,7.26-2.848,7.26-7.449c0-4.129-3.037-7.119-7.26-7.119
				C177.155,39.504,174.261,42.495,174.261,46.575z"/>
			<path fill="#FFFFFF" d="M201.927,36.135v4.889h0.096c2.135-3.75,4.176-5.314,6.17-5.314c1.707,0,3.32,0.807,5.076,2.467
				l-2.23,3.654c-1.281-1.234-2.941-2.088-3.938-2.088c-2.895,0-5.174,2.895-5.174,6.547v11.152h-4.223V36.135H201.927z"/>
			<path fill="#FFFFFF" d="M222.087,36.135h6.736v3.797h-6.736v10.914c0,2.514,1.803,3.227,3.035,3.227
				c1.52,0,3.086-0.521,4.793-1.566v3.939c-1.471,0.807-3.748,1.422-5.125,1.422c-4.602,0-6.926-2.846-6.926-6.689V39.932h-3.701
				v-0.475l7.924-7.734V36.135z"/>
			<path fill="#FFFFFF" d="M237.083,38.936h0.096c1.611-2.041,3.984-3.227,6.357-3.227c4.176,0,7.26,2.846,7.26,8.684v13.049h-4.223
				V44.25c0-3.133-1.613-5.172-4.176-5.172c-1.852,0-3.322,0.854-5.314,3.084v15.279h-4.223V25.081h4.223V38.936z"/>
			<path fill="#FFFFFF" d="M284.063,29.256h-13.713v9.773h13.238v4.176h-13.238v10.061h14.139v4.176H265.7V25.081h18.363V29.256z"/>
			<path fill="#FFFFFF" d="M305.372,56.208c-1.945,1.281-2.752,1.66-4.08,1.66c-1.852,0-2.848-0.664-3.227-2.182
				c-1.852,1.471-3.797,2.182-5.742,2.182c-3.133,0-5.221-2.467-5.221-5.219c0-4.223,3.844-5.504,7.262-6.738l3.748-1.328v-1.139
				c0-2.658-1.281-3.748-3.844-3.748c-2.326,0-4.697,1.09-6.738,3.51v-4.602c1.66-1.945,3.986-2.895,7.07-2.895
				c4.318,0,7.734,2.182,7.734,7.021v10.961c0,0.807,0.285,1.092,0.807,1.092c0.428,0,1.281-0.426,2.23-1.139V56.208z
				 M298.112,46.909c-3.607,1.232-6.738,2.467-6.738,4.98c0,1.756,1.281,2.99,3.037,2.99c1.328,0,2.563-0.664,3.701-1.756V46.909z"
				/>
			<path fill="#FFFFFF" d="M321.507,41.641c-2.373-1.566-4.604-2.23-6.168-2.23c-1.709,0-2.801,0.805-2.801,1.945
				c0,0.949,1.424,2.088,5.174,4.27c3.51,2.326,4.793,3.797,4.793,5.98c0,3.748-2.99,6.262-7.023,6.262
				c-2.609,0-4.65-0.521-7.402-1.945v-4.555c2.752,1.898,5.268,2.799,6.975,2.799c1.709-0.094,3.131-0.9,3.131-2.42
				c0-2.941-9.963-4.508-9.963-10.248c0-3.607,2.752-5.789,7.021-5.789c1.994,0,4.033,0.568,6.264,1.756V41.641z"/>
			<path fill="#FFFFFF" d="M332.329,36.135h6.738v3.797h-6.738v10.914c0,2.514,1.803,3.227,3.035,3.227
				c1.52,0,3.086-0.521,4.793-1.566v3.939c-1.471,0.807-3.748,1.422-5.123,1.422c-4.604,0-6.928-2.846-6.928-6.689V39.932h-3.703
				v-0.475l7.926-7.734V36.135z"/>
		</g>
		<g>
			<path fill="#FFFFFF" d="M17.037,76.524c-2.754-2.609-5.41-3.369-7.594-3.369c-2.988,0-5.125,1.566-5.125,3.844
				c0,6.217,14,6.121,14,16.418c0,5.076-3.844,8.777-9.064,8.777c-3.512,0-6.357-0.949-9.063-2.988v-5.885
				c2.373,3.037,5.361,4.697,8.541,4.697c3.605,0,5.268-2.277,5.268-4.08c0-6.689-13.998-7.449-13.998-16.322
				c0-5.268,3.891-8.637,9.822-8.637c2.467,0,4.934,0.76,7.213,2.277V76.524z"/>
			<path fill="#FFFFFF" d="M44.322,90.901c0,6.738-4.697,11.293-11.529,11.293c-6.549,0-11.246-4.744-11.246-11.293
				c0-6.121,4.887-10.865,11.246-10.865C39.482,80.036,44.322,84.59,44.322,90.901z M25.865,90.901c0,4.508,2.799,7.498,6.879,7.498
				c4.461,0,7.262-2.848,7.262-7.449c0-4.129-3.037-7.119-7.262-7.119C28.76,83.831,25.865,86.821,25.865,90.901z"/>
			<path fill="#FFFFFF" d="M53.057,80.461v2.801c2.184-2.184,4.223-3.227,6.217-3.227c2.705,0,4.934,1.328,6.357,3.842
				c1.852-2.086,4.082-3.842,7.117-3.842c4.318,0,7.07,3.322,7.07,8.352v13.381h-4.223V88.577c0-3.227-1.992-4.982-4.412-4.982
				c-1.377-0.047-3.227,1.139-4.746,2.705v15.469h-4.223V88.53c0-3.465-1.756-4.936-3.844-4.936c-2.135,0-3.559,0.664-5.314,2.705
				v15.469h-4.223V80.461H53.057z"/>
			<path fill="#FFFFFF" d="M103.406,99.68c-2.563,1.707-4.887,2.514-8.492,2.514c-6.645,0-10.346-5.457-10.346-11.34
				c0-6.453,4.082-10.818,9.965-10.818c5.646,0,9.254,3.842,9.254,11.721H88.793c0.664,4.223,3.084,6.404,7.164,6.404
				c2.563,0,4.982-0.949,7.449-2.563V99.68z M99.611,88.956c-0.143-3.227-1.994-5.268-4.982-5.268c-3.227,0-5.172,1.898-5.742,5.268
				H99.611z"/>
			<path fill="#FFFFFF" d="M112.852,80.461v4.889h0.096c2.135-3.748,4.176-5.314,6.168-5.314c1.709,0,3.322,0.807,5.078,2.467
				l-2.23,3.654c-1.281-1.234-2.941-2.088-3.938-2.088c-2.895,0-5.174,2.895-5.174,6.547v11.152h-4.223V80.461H112.852z"/>
			<path fill="#FFFFFF" d="M139.521,85.967c-2.371-1.566-4.602-2.23-6.168-2.23c-1.709,0-2.799,0.807-2.799,1.945
				c0,0.949,1.422,2.088,5.172,4.27c3.51,2.326,4.793,3.797,4.793,5.979c0,3.75-2.99,6.264-7.023,6.264
				c-2.609,0-4.65-0.521-7.402-1.945v-4.555c2.752,1.898,5.268,2.799,6.975,2.799c1.709-0.094,3.133-0.9,3.133-2.42
				c0-2.941-9.965-4.508-9.965-10.248c0-3.607,2.752-5.789,7.021-5.789c1.994,0,4.033,0.57,6.264,1.756V85.967z"/>
			<path fill="#FFFFFF" d="M163.201,99.68c-2.563,1.707-4.887,2.514-8.492,2.514c-6.645,0-10.344-5.457-10.344-11.34
				c0-6.453,4.08-10.818,9.963-10.818c5.646,0,9.254,3.842,9.254,11.721h-14.994c0.664,4.223,3.084,6.404,7.164,6.404
				c2.563,0,4.982-0.949,7.449-2.563V99.68z M159.406,88.956c-0.143-3.227-1.994-5.268-4.982-5.268
				c-3.227,0-5.172,1.898-5.742,5.268H159.406z"/>
			<path fill="#FFFFFF" d="M173.073,80.461h6.738v3.797h-6.738v10.914c0,2.514,1.803,3.227,3.037,3.227
				c1.518,0,3.084-0.521,4.793-1.566v3.939c-1.471,0.805-3.748,1.422-5.125,1.422c-4.603,0-6.927-2.846-6.927-6.689V84.258h-3.701
				v-0.475l7.923-7.734V80.461z"/>
			<path fill="#FFFFFF" d="M225.272,76.62c-3.984-2.326-7.402-3.369-11.15-3.369c-7.402,0-12.906,5.266-12.906,12.383
				c0,7.262,5.314,12.291,13.096,12.291c3.654,0,7.641-1.281,11.293-3.654v5.078c-3.178,1.66-6.643,2.846-11.721,2.846
				c-12.146,0-17.461-9.348-17.461-16.133c0-9.869,7.449-17.082,17.746-17.082c3.322,0,6.691,0.807,11.104,2.658V76.62z"/>
			<path fill="#FFFFFF" d="M252.229,90.901c0,6.738-4.697,11.293-11.531,11.293c-6.547,0-11.244-4.744-11.244-11.293
				c0-6.121,4.887-10.865,11.244-10.865C247.39,80.036,252.229,84.59,252.229,90.901z M233.771,90.901
				c0,4.508,2.801,7.498,6.881,7.498c4.461,0,7.26-2.848,7.26-7.449c0-4.129-3.037-7.119-7.26-7.119
				C236.665,83.831,233.771,86.821,233.771,90.901z"/>
			<path fill="#FFFFFF" d="M270.454,101.768v-2.705c-1.756,1.898-4.223,3.131-6.311,3.131c-4.318,0-7.355-3.084-7.355-8.492v-13.24
				h4.223v13.523c0,2.99,1.471,4.699,4.365,4.699c1.898,0,3.701-1.045,5.078-2.99V80.461h4.223v21.307H270.454z"/>
			<path fill="#FFFFFF" d="M284.786,83.262h0.096c1.613-2.041,3.986-3.227,6.357-3.227c4.033,0,7.26,2.752,7.26,8.588v13.145h-4.223
				V88.577c0-3.133-1.613-5.172-4.176-5.172c-1.85,0-3.32,0.854-5.314,3.084v15.279h-4.223V80.461h4.223V83.262z"/>
			<path fill="#FFFFFF" d="M320.046,86.014c-2.42-1.613-4.033-2.088-5.883-2.088c-3.844,0-6.502,2.895-6.502,7.213
				c0,4.412,2.848,7.07,7.213,7.07c1.803,0,3.512-0.475,5.646-1.424v4.176c-1.424,0.664-4.127,1.232-6.357,1.232
				c-6.359,0-10.82-4.412-10.82-10.676c0-7.021,4.082-11.482,10.535-11.482c2.467,0,4.127,0.57,6.168,1.471V86.014z"/>
			<path fill="#FFFFFF" d="M327.403,76.524c-1.377,0-2.514-1.139-2.514-2.516c0-1.375,1.137-2.514,2.514-2.514
				s2.514,1.139,2.514,2.514C329.917,75.385,328.78,76.524,327.403,76.524z M329.491,101.768h-4.223V80.461h4.223V101.768z"/>
			<path fill="#FFFFFF" d="M339.884,101.768h-4.223V69.407h4.223V101.768z"/>
		</g>
	</g>
</g>
</svg>
